# AST/ASF file generated using VICON BodyLanguage
# -----------------------------------------------
:version 1.10
:name VICON
:units
  mass 1.0
  length 0.45
  angle deg
:documentation
   .ast/.asf automatically generated from VICON data using
   VICON BodyBuilder and BodyLanguage model FoxedUp or BRILLIANT.MOD
:root
   order TX TY TZ RX RY RZ
   axis XYZ
   position 0 0 0  
   orientation 0 0 0 
:bonedata
  begin
     id 1 
     name lhipjoint
     direction 0.734343 -0.627749 0.258209 
     length 2.5437 
     axis 0 0 0  XYZ
  end
  begin
     id 2 
     name lfemur
     direction 0.34202 -0.939693 0  
     length 6.7391  
     axis 0 0 20  XYZ
    dof rx ry rz
    limits (-160.0 20.0)
           (-70.0 70.0)
           (-60.0 70.0)
  end
  begin
     id 3 
     name ltibia
     direction 0.34202 -0.939693 0   
     length 7.21536   
     axis 0 0 20   XYZ
    dof rx
    limits (-10.0 170.0)
  end
  begin
     id 4 
     name lfoot
     direction 0.0489572 -0.134509 0.989702   
     length 1.61313   
     axis -90 7.62852e-016 20   XYZ
    dof rx rz
    limits (-45.0 90.0)
           (-70.0 20.0)
  end
  begin
     id 5 
     name ltoes
     direction 1.53451e-011 -4.21692e-011 1   
     length 0.823104   
     axis -90 7.62852e-016 20   XYZ
    dof rx
    limits (-90.0 20.0)
  end
  begin
     id 6 
     name rhipjoint
     direction -0.746398 -0.615468 0.253157   
     length 2.59446  
     axis 0 0 0  XYZ 
  end
  begin
     id 7 
     name rfemur
     direction -0.34202 -0.939693 0   
     length 6.7075   
     axis 0 0 -20   XYZ
    dof rx ry rz
    limits (-160.0 20.0)
           (-70.0 70.0)
           (-70.0 60.0)
  end
  begin
     id 8 
     name rtibia
     direction -0.34202 -0.939693 0   
     length 7.27262   
     axis 0 0 -20   XYZ
    dof rx
    limits (-10.0 170.0)
 end
 begin
     id 9 
     name rfoot
     direction -0.0455203 -0.125066 0.991104   
     length 1.91095  
     axis -90 -7.62852e-016 -20   XYZ
    dof rx rz
    limits (-45.0 90.0)
           (-20.0 70.0)
  end
  begin
     id 10 
     name rtoes
     direction -1.53601e-011 -4.21913e-011 1   
     length 0.969037   
     axis -90 -7.62852e-016 -20   XYZ
    dof rx
    limits (-90.0 20.0)
  end
  begin
     id 11 
     name lowerback
     direction 0.0181546 0.999122 -0.0377542   
     length 1.99916   
     axis 0 0 0   XYZ
    dof rx ry rz
    limits (-20.0 45.0)
           (-30.0 30.0)
           (-30.0 30.0)
  end
  begin
     id 12 
     name upperback
     direction 0.0203486 0.99589 0.0882534   
     length 1.951   
     axis 0 0 0   XYZ
    dof rx ry rz
    limits (-20.0 45.0)
           (-30.0 30.0)
           (-30.0 30.0)
  end
  begin
     id 13 
     name thorax
     direction 0.0131685 0.994241 0.106355   
     length 1.97461   
     axis 0 0 0   XYZ
    dof rx ry rz
    limits (-20.0 45.0)
           (-30.0 30.0)
           (-30.0 30.0)
  end
  begin
     id 14 
     name lowerneck
     direction -0.0281395 0.999325 0.023617   
     length 1.7959   
     axis 0 0 0   XYZ
    dof rx ry rz
    limits (-20.0 45.0)
           (-30.0 30.0)
           (-30.0 30.0)
  end
  begin
     id 15 
     name upperneck
     direction 0.0288721 0.991984 -0.123019   
     length 1.79917   
     axis 0 0 0   XYZ
    dof rx ry rz
    limits (-20.0 45.0)
           (-30.0 30.0)
           (-30.0 30.0)
  end
  begin
     id 16
     name head
     direction 0.0133797 0.998944 -0.0439492  
     length 1.80902  
     axis 0 0 0   XYZ
    dof rx ry rz
    limits (-20.0 45.0)
           (-30.0 30.0)
           (-30.0 30.0)
  end
  begin
     id 17 
     name lclavicle
     direction 0.919195 0.377107 0.113449  
     length 3.17815  
     axis 0 0 0   XYZ
    dof ry rz
    limits (-20.0 10.0)
           (0.0 20.0)
  end
  begin
     id 18 
     name lhumerus
     direction 1 -4.48959e-011 2.13129e-027   
     length 4.84137   
     axis 180 -30 -90   XYZ
    dof rx ry rz
    limits (-60.0 90.0)
           (-90.0 90.0)
           (-90.0 90.0)
  end
  begin
     id 19
     name lradius
     direction 1 -4.48957e-011 -6.30627e-028   
     length 3.2452   
     axis 180 -30 -90   XYZ
    dof rx
    limits (-10.0 170.0)
  end
  begin
     id 20
     name lwrist
     direction 1 -4.4901e-011 9.13299e-027   
     length 1.6226   
     axis -6.84618e-015 90 90   XYZ
    dof ry
    limits (-180.0 0.0)
 end
  begin
     id 21 
     name lhand
     direction 1 -4.48816e-011 1.82293e-026   
     length 0.521221   
     axis -1.16502e-014 90 90   XYZ
    dof rx rz
    limits (-90.0 90.0)
           (-45.0 45.0)
  end
  begin
     id 22 
     name lfingers
     direction 1 -4.49108e-011 3.65687e-026   
     length 0.420221   
     axis -2.33008e-014 90 90   XYZ
    dof rx
    limits (0.0 90.0)
  end
  begin
     id 23
     name lthumb
     direction 0.707107 -6.34943e-011 0.707107   
     length 0.603356   
     axis -90 45 5.69224e-014   XYZ
    dof rx rz
    limits (-45.0 45.0)
           (-45.0 45.0)
  end
  begin
     id 24 
     name rclavicle
     direction -0.90847 0.38596 0.160368   
     length 3.12973  
     axis 0 0 0   XYZ 
    dof ry rz
    limits (-10.0 20.0)
           (-20.0 0.0)
  end
  begin
     id 25 
     name rhumerus
     direction -1 -4.48974e-011 4.47268e-028  
     length 4.72284   
     axis 180 30 90   XYZ
    dof rx ry rz
    limits (-90.0 60.0)
           (-90.0 90.0)
           (-90.0 90.0)
  end
  begin
     id 26 
     name rradius
     direction -1 -4.48969e-011 3.43203e-027   
     length 3.23459   
     axis 180 30 90   XYZ
    dof rx
    limits (-10.0 170.0)
  end
  begin
     id 27 
     name rwrist
     direction -1 -4.48969e-011 9.12911e-027   
     length 1.6173   
     axis -6.84618e-015 -90 -90   XYZ
    dof ry
    limits (-180.0 0.0)
  end
  begin
     id 28
     name rhand
     direction -1 -4.49194e-011 1.83006e-026   
     length 0.307416   
     axis -1.16502e-014 -90 -90   XYZ
    dof rx rz
    limits (-90.0 90.0)
           (-45.0 45.0)
  end
  begin
     id 29
     name rfingers
     direction -1 -4.48423e-011 3.63103e-026   
     length 0.247847   
     axis -2.33008e-014 -90 -90   XYZ
    dof rx
    limits (0.0 90.0)
  end
  begin
     id 30
     name rthumb
     direction -0.707107 -6.34802e-011 0.707107   
     length 0.35586   
     axis -90 -45 -5.69224e-014   XYZ
    dof rx rz
    limits (-45.0 45.0)
           (-45.0 45.0)
  end
:hierarchy
  begin
    root lhipjoint rhipjoint lowerback
    lhipjoint lfemur
    lfemur ltibia
    ltibia lfoot
    lfoot ltoes
    rhipjoint rfemur
    rfemur rtibia
    rtibia rfoot
    rfoot rtoes
    lowerback upperback
    upperback thorax
    thorax lowerneck lclavicle rclavicle
    lowerneck upperneck
    upperneck head
    lclavicle lhumerus
    lhumerus lradius
    lradius lwrist
    lwrist lhand lthumb
    lhand lfingers
    rclavicle rhumerus
    rhumerus rradius
    rradius rwrist
    rwrist rhand rthumb
    rhand rfingers
  end

#!OML:ASF H:\Terrain\Patient Classification 1\Animal1\Tuesday\Animal1.ASF
:FULLY-SPECIFIED
:DEGREES
204
root 18.7862 13.677 -24.7907 45.732 -32.9616 -8.81874
lowerback 42.0447 -1.91025 -7.99378
upperback 11.743 -6.39366 -4.86243
thorax -6.54832 -3.05854 1.43018
lowerneck -8.89804 3.02685 -16.6037
upperneck -18.7657 6.47746 10.4176
head -5.05953 3.88848 5.97194
rclavicle 1.27222e-014 1.0635e-014
rhumerus 16.0563 21.1509 -20.1704
rradius 66.2944
rwrist -61.4852
rhand -4.78791 25.244
rfingers 7.12502
rthumb 20.9972 -3.63934
lclavicle 1.27222e-014 1.0635e-014
lhumerus 42.5347 -3.82964 52.7178
lradius 33.0643
lwrist -32.6936
lhand 0.80824 50.6045
lfingers 7.12502
lthumb 26.3643 78.7917
rfemur -82.1129 -9.78796 32.6695
rtibia 68.0617
rfoot -18.0354 -20.1615
rtoes -8.49473
lfemur -98.7091 22.0092 -20.8551
ltibia 56.7136
lfoot 2.95034 7.74451
ltoes -15.3873
205
root 18.7338 13.7503 -24.5926 44.1466 -33.3608 -9.34848
lowerback 44.8553 -1.20893 -8.47731
upperback 11.6773 -6.06211 -4.58083
thorax -7.33503 -2.87954 1.90511
lowerneck -8.79089 3.01559 -16.5256
upperneck -18.806 6.40449 10.1963
head -5.07356 3.85255 5.88501
rclavicle 9.54166e-015 4.69629e-015
rhumerus 15.0725 23.1113 -19.2743
rradius 67.1123
rwrist -61.8484
rhand -5.73869 22.4772
rfingers 7.12502
rthumb 20.0835 -6.50474
lclavicle 9.54166e-015 4.69629e-015
lhumerus 42.8624 -5.17353 52.0354
lradius 33.0372
lwrist -32.4069
lhand -0.404604 50.4177
lfingers 7.12502
lthumb 25.2028 78.7736
rfemur -78.7583 -10.3562 32.1935
rtibia 67.5248
rfoot -18.8399 -20.0873
rtoes -9.48692
lfemur -95.3437 21.6218 -18.076
ltibia 57.9469
lfoot 1.16244 10.1606
ltoes -13.2123
206
root 18.6725 13.7128 -24.4723 46.016 -33.2706 -9.88159
lowerback 42.9022 -1.81163 -7.81519
upperback 11.7878 -6.37544 -5.3482
thorax -6.8296 -3.0245 0.846412
lowerneck -8.63463 3.21047 -15.6111
upperneck -18.9305 6.67903 10.5578
head -5.14098 3.90828 5.84222
rclavicle -3.18055e-014 5.33861e-014
rhumerus 13.857 24.9247 -20.0489
rradius 67.8434
rwrist -62.6363
rhand -4.77163 19.2661
rfingers 7.12502
rthumb 21.0128 -9.61553
lclavicle -3.18055e-014 5.33861e-014
lhumerus 43.1623 -6.61123 49.3867
lradius 33.2471
lwrist -32.0476
lhand 0.499218 48.8746
lfingers 7.12502
lthumb 26.0684 77.1058
rfemur -79.8719 -10.0847 32.9452
rtibia 67.4655
rfoot -18.9859 -20.2215
rtoes -10.5647
lfemur -97.189 21.9037 -17.8294
ltibia 59.179
lfoot 0.0948631 10.3833
ltoes -11.691
207
root 18.6115 13.7015 -24.3353 47.01 -33.0916 -10.1753
lowerback 42.139 -1.26544 -8.50251
upperback 11.8575 -5.81204 -4.52592
thorax -6.38123 -2.82844 1.80729
lowerneck -9.06968 3.05479 -15.3352
upperneck -18.8867 6.39647 9.89336
head -5.00044 3.78605 5.59358
rclavicle 2.8625e-014 -3.26504e-014
rhumerus 12.2464 25.8537 -20.489
rradius 67.7422
rwrist -62.2664
rhand -1.97088 19.2765
rfingers 7.12502
rthumb 23.7013 -9.28221
lclavicle 2.8625e-014 -3.26504e-014
lhumerus 44.1196 -7.34848 49.7014
lradius 33.0373
lwrist -32.5135
lhand 2.22699 46.4674
lfingers 7.12502
lthumb 27.7217 74.4438
rfemur -80.1149 -10.2612 33.4587
rtibia 67.3098
rfoot -18.4767 -20.4895
rtoes -13.3129
lfemur -97.8898 21.8929 -17.1577
ltibia 60.2565
lfoot -0.954966 10.5939
ltoes -10.8918
208
root 18.5504 13.7161 -24.1844 47.2377 -33.0332 -10.2334
lowerback 42.4083 -0.907781 -9.02726
upperback 11.8134 -5.59327 -4.24421
thorax -6.43307 -2.73836 2.28508
lowerneck -9.5897 2.99822 -14.5161
upperneck -18.7247 6.25416 9.38416
head -4.81061 3.68878 5.30313
rclavicle 9.85972e-014 2.21645e-014
rhumerus 10.5291 26.8486 -21.6453
rradius 67.0494
rwrist -62.3093
rhand -0.389935 21.8403
rfingers 7.12502
rthumb 25.2168 -6.51361
lclavicle 9.85972e-014 2.21645e-014
lhumerus 44.9589 -8.36756 49.126
lradius 32.9907
lwrist -32.2959
lhand 3.28972 44.7622
lfingers 7.12502
lthumb 28.7374 72.5708
rfemur -79.6108 -10.7221 33.5694
rtibia 67.1796
rfoot -17.7855 -20.793
rtoes -16.9795
lfemur -97.4829 21.6516 -16.2731
ltibia 61.0962
lfoot -2.62406 11.2032
ltoes -7.07195
209
root 18.4812 13.7443 -24.0309 47.394 -33.0264 -10.5085
lowerback 42.1092 -1.02893 -8.89462
upperback 12.1391 -5.70063 -4.80153
thorax -6.04993 -2.79815 1.6501
lowerneck -9.58074 3.07234 -13.6268
upperneck -18.9243 6.33083 9.48999
head -4.84961 3.66255 5.18995
rclavicle 1.30403e-013 3.68746e-014
rhumerus 8.80069 28.1037 -22.5149
rradius 66.857
rwrist -63.4524
rhand -0.222727 22.6471
rfingers 7.12502
rthumb 25.377 -5.68409
lclavicle 1.30403e-013 3.68746e-014
lhumerus 45.6185 -9.98675 45.3187
lradius 33.9549
lwrist -29.4835
lhand 3.43232 43.6166
lfingers 7.12502
lthumb 28.8736 71.402
rfemur -78.6963 -11.0938 33.7682
rtibia 66.9032
rfoot -18.393 -20.4382
rtoes -17.8333
lfemur -96.7298 21.6292 -15.3853
ltibia 61.6989
lfoot -3.7762 11.6933
ltoes -6.08404
210
root 18.409 13.7838 -23.8711 47.544 -33.1011 -10.6809
lowerback 42.0689 -0.807905 -9.23934
upperback 12.1212 -5.57766 -4.83453
thorax -6.03002 -2.74703 1.73638
lowerneck -9.40136 3.03106 -13.3662
upperneck -18.9378 6.23427 9.50387
head -4.86031 3.5895 5.15011
rclavicle 6.36111e-015 -3.32964e-014
rhumerus 6.62616 29.8704 -22.7301
rradius 66.8648
rwrist -64.0554
rhand -0.892794 22.6095
rfingers 7.12502
rthumb 24.735 -5.81131
lclavicle 6.36111e-015 -3.32964e-014
lhumerus 46.1724 -11.1347 45.5562
lradius 33.6201
lwrist -29.9711
lhand 2.31841 42.3831
lfingers 7.12502
lthumb 27.8091 70.3454
rfemur -77.7955 -11.4312 33.8306
rtibia 66.5881
rfoot -19.0111 -20.0149
rtoes -18.0582
lfemur -95.9884 21.6361 -14.886
ltibia 62.1332
lfoot -4.3672 12.0842
ltoes -7.29658
211
root 18.3421 13.8308 -23.7085 47.48 -33.1933 -10.3173
lowerback 41.9009 -0.796849 -9.49667
upperback 12.3008 -5.66281 -5.14034
thorax -5.77826 -2.79458 1.558
lowerneck -9.68308 2.97229 -12.7335
upperneck -19.0063 6.1364 9.42095
head -4.80053 3.50611 5.02741
rclavicle 2.22639e-014 1.39149e-015
rhumerus 4.19787 31.4698 -23.4984
rradius 66.6496
rwrist -64.0043
rhand -2.79476 23.5205
rfingers 7.12502
rthumb 22.9109 -5.13836
lclavicle 2.22639e-014 1.39149e-015
lhumerus 47.5085 -13.5116 37.9813
lradius 35.6479
lwrist -23.4196
lhand 12.687 41.1431
lfingers 7.12502
lthumb 37.6702 67.0313
rfemur -77.106 -11.9543 33.4208
rtibia 66.3168
rfoot -18.7352 -19.9029
rtoes -19.5358
lfemur -95.3496 21.3127 -15.0514
ltibia 62.4072
lfoot -5.24759 12.4185
ltoes -6.8175
212
root 18.2693 13.8781 -23.5491 47.4339 -33.1209 -10.0202
lowerback 41.8943 -0.955673 -9.49858
upperback 12.2563 -5.89071 -5.53085
thorax -5.85618 -2.87524 1.23489
lowerneck -9.81565 3.06542 -12.0242
upperneck -18.6885 6.20644 9.28927
head -4.66107 3.50072 4.86332
rclavicle 2.8625e-014 3.12092e-014
rhumerus 2.03774 33.6701 -23.8645
rradius 66.4015
rwrist -64.4319
rhand -4.04219 23.7461
rfingers 7.12502
rthumb 21.7134 -5.05613
lclavicle 2.8625e-014 3.12092e-014
lhumerus 47.8707 -14.1603 40.6794
lradius 34.419
lwrist -27.1646
lhand 13.8911 39.8284
lfingers 7.12502
lthumb 38.8068 65.4035
rfemur -76.3661 -12.3874 33.0361
rtibia 66.0801
rfoot -18.2254 -19.7879
rtoes -20.6832
lfemur -94.7839 21.0395 -15.32
ltibia 62.5871
lfoot -5.36806 12.5742
ltoes -11.3765
213
root 18.1882 13.9285 -23.3878 47.6512 -33.086 -10.0236
lowerback 41.4438 -0.621687 -10.0525
upperback 12.2705 -5.61353 -5.22965
thorax -5.62513 -2.78137 1.70624
lowerneck -9.86017 3.0498 -12.1058
upperneck -18.4482 6.17477 9.22917
head -4.57819 3.49361 4.85697
rclavicle -2.22639e-014 4.75095e-014
rhumerus -0.847101 35.1537 -24.9588
rradius 65.8382
rwrist -63.2164
rhand -3.36174 22.984
rfingers 7.12502
rthumb 22.3668 -5.7412
lclavicle -2.22639e-014 4.75095e-014
lhumerus 48.3669 -15.1767 39.1853
lradius 34.7535
lwrist -25.5948
lhand 9.91325 39.0076
lfingers 7.12502
lthumb 35.0441 65.5534
rfemur -75.7072 -12.5826 32.8588
rtibia 65.9412
rfoot -17.4078 -19.6148
rtoes -21.6352
lfemur -94.2542 21.0336 -15.4304
ltibia 62.6826
lfoot -5.67639 12.7431
ltoes -15.0398
214
root 18.1055 13.9837 -23.222 48.0197 -33.1303 -10.0936
lowerback 40.8891 -0.703444 -10.0942
upperback 12.25 -5.69554 -5.59858
thorax -5.51214 -2.8128 1.35778
lowerneck -9.80975 3.14044 -11.8553
upperneck -18.3689 6.35712 9.75454
head -4.57955 3.54519 4.98038
rclavicle 4.77083e-014 -4.03533e-014
rhumerus -3.60057 37.5331 -25.019
rradius 66.4397
rwrist -63.5976
rhand -3.13893 22.246
rfingers 7.12502
rthumb 22.5806 -6.45335
lclavicle 4.77083e-014 -4.03533e-014
lhumerus 48.6495 -15.3531 38.6018
lradius 35.7261
lwrist -29.4428
lhand 15.8464 38.7645
lfingers 7.12502
lthumb 40.6477 63.7918
rfemur -75.2525 -12.6296 32.6482
rtibia 65.9417
rfoot -16.8509 -18.875
rtoes -21.175
lfemur -93.7266 21.0943 -15.46
ltibia 62.7034
lfoot -6.71195 12.9223
ltoes -13.9274
